<?xml version="1.0" encoding="utf-8"?>
<!-- Generator: Adobe Illustrator 22.0.1, SVG Export Plug-In . SVG Version: 6.00 Build 0)  -->
<svg version="1.1" id="Capa_1" xmlns="http://www.w3.org/2000/svg" xmlns:xlink="http://www.w3.org/1999/xlink" x="0px" y="0px"
	 viewBox="0 0 70 70" style="enable-background:new 0 0 70 70;" xml:space="preserve">
<style type="text/css">
	.mic2{fill:url(#MIC2);}
</style>
<linearGradient id="MIC2" gradientUnits="userSpaceOnUse" x1="8.9036" y1="35" x2="61.8871" y2="35">
	<stop  offset="0" style="stop-color:#8000FF"/>
	<stop  offset="1.296955e-02" style="stop-color:#790DFF"/>
	<stop  offset="5.808920e-02" style="stop-color:#6436FF"/>
	<stop  offset="0.1087" style="stop-color:#515CFF"/>
	<stop  offset="0.1639" style="stop-color:#417CFF"/>
	<stop  offset="0.2248" style="stop-color:#3398FF"/>
	<stop  offset="0.2937" style="stop-color:#28AEFF"/>
	<stop  offset="0.374" style="stop-color:#1FBFFF"/>
	<stop  offset="0.4735" style="stop-color:#19CAFF"/>
	<stop  offset="0.6129" style="stop-color:#16D1FF"/>
	<stop  offset="1" style="stop-color:#15D3FF"/>
</linearGradient>
<path class="mic2" d="M34.9,55.8c7.5,0,13.6-6.1,13.6-13.6V22.7l12.6-11c0.8-0.8,0.9-2,0.1-3c-0.8-0.8-2-0.9-2.9-0.1l-9.9,8.6v-3.6
	C48.5,6.1,42.3,0,34.8,0c-7.6,0-13.5,6-13.5,13.6V41L19,43c0-0.3,0-0.6,0-0.9V35c0-1-0.7-1.8-1.8-1.8S15.4,34,15.4,35v7.1
	c0,1.4,0.1,2.7,0.4,3.7l-6.2,5.4c-0.8,0.8-0.9,2-0.2,2.9c0.3,0.5,0.9,0.7,1.6,0.7c0.5,0,1-0.2,1.3-0.5l4.8-4.2
	c2.9,6.4,9.1,10.8,16,11.4v4.9h-5.3c-1,0-1.8,0.7-1.8,1.8c0,1,0.7,1.8,1.8,1.8H42c1,0,1.8-0.7,1.8-1.8c0-1-0.7-1.8-1.8-1.8h-5.3
	v-4.9c10-0.9,17.8-9.3,17.8-19.4V35c0-1-0.7-1.8-1.8-1.8c-1,0-1.8,0.7-1.8,1.8v7.1c0,8.8-7.2,16-16,16c-6.7,0-12.6-4.2-15-10.5
	l1.9-1.7C23.6,51.8,28.8,55.8,34.9,55.8z M24.8,37.8V13.6c0-5.6,4.5-10.1,10.1-10.1C40.5,3.6,45,8.1,45,13.6v6.6L24.8,37.8z
	 M34.9,52.2c-5.1,0-9.3-3.8-10.1-8.9L45,25.7v16.4C45,47.7,40.5,52.2,34.9,52.2z"/>
</svg>
