<?xml version="1.0" encoding="utf-8"?>
<svg version="1.1" id="Capa_1" xmlns="http://www.w3.org/2000/svg" xmlns:xlink="http://www.w3.org/1999/xlink" x="0px" y="0px"
	 viewBox="0 0 54.9 54.9" style="enable-background:new 0 0 54.9 54.9;" xml:space="preserve">
<style type="text/css">
	.st0{fill:#FFFFFF;}
</style>
<g>
	<path class="st0" d="M0.3,31.4c0.2,1.4,0.6,2.8,1.7,3.8c1.3,1.2,3.2,1.6,5.9,1.3c7.5-0.9,7.9-3.7,7.9-7.2
		c-2.3,1.1-8.1,2.2-12.9,2.2C2,31.5,1.2,31.5,0.3,31.4z"/>
	<path class="st0" d="M54.3,28.2c0,0,0-0.9,0-1.8c0-0.4,0-0.8,0-1.2c0-2.6-2.8-5.4-7.5-7.5c-5.1-2.3-12-3.6-19.4-3.6
		c-7.3,0-14.2,1.3-19.4,3.6c-2.3,1.1-4.2,2.3-5.5,3.6c-1.3,1.3-2,2.7-2.2,3.9c0,0.4,0,0.8,0,1.2c0,0.6,0,1.3,0,2
		c4.6,0.7,12.9-0.9,15.5-2.1v-0.1c0-1.1,2.1-1.7,3.3-2c2-0.4,4.7-0.6,8.2-0.6c10.7,0,11.5,2,11.5,2.6C41.4,27.4,49.8,28.9,54.3,28.2
		"/>
	<path class="st0" d="M38.8,29.2c0,3.5,0.2,6.4,7.9,7.3c2.7,0.3,4.6-0.1,5.9-1.3c1.1-1,1.5-2.5,1.7-4c-0.8,0.1-1.6,0.2-2.6,0.2
		C46.9,31.4,41.1,30.3,38.8,29.2z"/>
</g>
</svg>
