<?xml version="1.0" encoding="utf-8"?>
<!-- Generator: Adobe Illustrator 22.0.1, SVG Export Plug-In . SVG Version: 6.00 Build 0)  -->
<svg version="1.1" id="Capa_1" xmlns="http://www.w3.org/2000/svg" xmlns:xlink="http://www.w3.org/1999/xlink" x="0px" y="0px"
	 viewBox="0 0 70 70" style="enable-background:new 0 0 70 70;" xml:space="preserve">
<style type="text/css">
	.pic{fill:url(#PIC);}
</style>
<linearGradient id="PIC" gradientUnits="userSpaceOnUse" x1="5.5" y1="35" x2="64.5" y2="35">
	<stop  offset="0" style="stop-color:#8000FF"/>
	<stop  offset="0.1701" style="stop-color:#7E03FF"/>
	<stop  offset="0.3107" style="stop-color:#790EFF"/>
	<stop  offset="0.4409" style="stop-color:#701FFF"/>
	<stop  offset="0.5647" style="stop-color:#6437FF"/>
	<stop  offset="0.6841" style="stop-color:#5456FF"/>
	<stop  offset="0.8002" style="stop-color:#417DFF"/>
	<stop  offset="0.9114" style="stop-color:#2AAAFF"/>
	<stop  offset="1" style="stop-color:#15D3FF"/>
</linearGradient>
<path class="pic" d="M63,11.5H7c-0.8,0-1.5,0.7-1.5,1.5v44c0,0.8,0.7,1.5,1.5,1.5h56c0.8,0,1.5-0.7,1.5-1.5V13
	C64.5,12.2,63.8,11.5,63,11.5z M61.5,14.5v41h-53v-41H61.5z M22,34.6c3.3,0,6.1-2.7,6.1-6.1c0-3.3-2.7-6.1-6.1-6.1s-6.1,2.7-6.1,6.1
	C15.9,31.9,18.7,34.6,22,34.6z M22,25.5c1.7,0,3.1,1.4,3.1,3.1s-1.4,3.1-3.1,3.1s-3.1-1.4-3.1-3.1C18.9,26.9,20.3,25.5,22,25.5z
	 M11.9,52c-0.3-0.3-0.4-0.7-0.4-1.1c0-0.4,0.2-0.8,0.5-1l17-15c0.6-0.5,1.5-0.5,2.1,0.1l4.4,4.4L44.9,29c0.3-0.3,0.6-0.5,1-0.5
	c0.4,0,0.8,0.1,1.1,0.4l12,11c0.3,0.3,0.5,0.6,0.5,1c0,0.4-0.1,0.8-0.4,1.1c-0.6,0.6-1.5,0.7-2.1,0.1l-10.9-10l-8.5,9.3l4.5,4.5
	c0.6,0.6,0.6,1.5,0,2.1c-0.6,0.6-1.5,0.6-2.1,0l-10-10L14,52.1c-0.3,0.2-0.6,0.4-1,0.4C12.6,52.5,12.2,52.3,11.9,52z"/>
</svg>
